#!OML:ASF H:\Dans Jumps\Project 1\Capture day 1\Session 1\subject.ASF
:FULLY-SPECIFIED
:DEGREES
211
root 0.534 17.4559 -14.0204 6.61118 -0.547592 -2.01609
lowerback 0.0587143 -0.554272 0.354627
upperback 4.41137 -0.827722 2.03245
thorax 4.54007 -0.443177 1.86812
lowerneck -14.3638 0.271963 -2.23472
upperneck 25.425 1.00188 -0.157055
head 10.5107 0.221934 0.455124
rclavicle -2.5842e-015 3.18055e-015
rhumerus -42.3845 -21.266 -67.5178
rradius 25.2881
rwrist 30.1409
rhand -18.4475 -26.3592
rfingers 7.12502
rthumb 7.83848 -56.1939
lclavicle -2.5842e-015 3.18055e-015
lhumerus -36.8866 3.79055 83.6275
lradius 18.2237
lwrist 8.20593
lhand -26.5119 -4.97524
lfingers 7.12502
lthumb 0.051302 25.0045
rfemur -15.7945 -2.01587 20.3918
rtibia 24.5647
rfoot -14.5688 -3.58199
rtoes 8.24115
lfemur -15.5075 5.81998 -17.655
ltibia 24.0378
lfoot -12.912 4.34512
ltoes -1.49376
212
root 0.534285 17.4527 -14.0318 6.6947 -0.552727 -2.02163
lowerback 0.155992 -0.552247 0.355778
upperback 4.47908 -0.825357 2.04556
thorax 4.55573 -0.442591 1.88196
lowerneck -14.3914 0.274893 -2.23949
upperneck 25.2805 1.01237 -0.179564
head 10.4631 0.225205 0.448845
rclavicle 4.67144e-015 -4.77083e-015
rhumerus -42.6911 -21.2522 -67.3652
rradius 25.3304
rwrist 30.0781
rhand -18.4621 -26.3214
rfingers 7.12502
rthumb 7.8243 -56.1566
lclavicle 4.67144e-015 -4.77083e-015
lhumerus -37.1792 3.71726 83.6741
lradius 18.3301
lwrist 8.56095
lhand -26.4502 -4.80947
lfingers 7.12502
lthumb 0.110961 25.1702
rfemur -16.0109 -2.01976 20.4012
rtibia 24.716
rfoot -14.6048 -3.57821
rtoes 8.23106
lfemur -15.7455 5.84987 -17.6655
ltibia 24.218
lfoot -12.9539 4.34441
ltoes -1.58139
213
root 0.534688 17.4495 -14.0431 6.78157 -0.562398 -2.02366
lowerback 0.254498 -0.54928 0.354576
upperback 4.54265 -0.821509 2.05702
thorax 4.56634 -0.441299 1.89548
lowerneck -14.4148 0.279397 -2.24302
upperneck 25.1403 1.02456 -0.201861
head 10.4164 0.22938 0.44267
rclavicle -3.47873e-015 -1.15295e-014
rhumerus -42.9959 -21.2286 -67.2183
rradius 25.3683
rwrist 30.0271
rhand -18.4669 -26.2864
rfingers 7.12502
rthumb 7.81968 -56.1218
lclavicle -3.47873e-015 -1.15295e-014
lhumerus -37.468 3.66541 83.7111
lradius 18.4199
lwrist 8.90039
lhand -26.3898 -4.64322
lfingers 7.12502
lthumb 0.169233 25.3365
rfemur -16.2315 -2.02596 20.4067
rtibia 24.8676
rfoot -14.6424 -3.56964
rtoes 8.2157
lfemur -15.9818 5.8794 -17.6805
ltibia 24.3912
lfoot -12.9951 4.34518
ltoes -1.6632
214
root 0.535137 17.4464 -14.0543 6.87055 -0.577167 -2.02289
lowerback 0.353486 -0.544327 0.351673
upperback 4.6024 -0.814785 2.06586
thorax 4.57257 -0.43856 1.90734
lowerneck -14.4331 0.284941 -2.24091
upperneck 25.0018 1.03702 -0.225869
head 10.3695 0.234019 0.434969
rclavicle 4.27387e-015 -2.38542e-015
rhumerus -43.3022 -21.2067 -67.0699
rradius 25.3959
rwrist 29.9976
rhand -18.4596 -26.2455
rfingers 7.12502
rthumb 7.82671 -56.0806
lclavicle 4.27387e-015 -2.38542e-015
lhumerus -37.7564 3.63534 83.7329
lradius 18.4842
lwrist 9.19089
lhand -26.3607 -4.55068
lfingers 7.12502
lthumb 0.197377 25.429
rfemur -16.4545 -2.03036 20.4088
rtibia 25.0182
rfoot -14.6794 -3.55951
rtoes 8.20655
lfemur -16.215 5.9098 -17.6987
ltibia 24.5578
lfoot -13.0344 4.3484
ltoes -1.74611
215
root 0.535692 17.4433 -14.065 6.95898 -0.595517 -2.02126
lowerback 0.451207 -0.538227 0.350379
upperback 4.66188 -0.80648 2.07196
thorax 4.57914 -0.434912 1.9155
lowerneck -14.4539 0.290218 -2.23651
upperneck 24.8668 1.04792 -0.247514
head 10.3244 0.238412 0.427552
rclavicle -1.2921e-015 -1.51076e-014
rhumerus -43.6065 -21.1887 -66.9227
rradius 25.4163
rwrist 29.9865
rhand -18.435 -26.2149
rfingers 7.12502
rthumb 7.85049 -56.0492
lclavicle -1.2921e-015 -1.51076e-014
lhumerus -38.0375 3.63059 83.7367
lradius 18.5149
lwrist 9.41644
lhand -26.3783 -4.55972
lfingers 7.12502
lthumb 0.180416 25.4199
rfemur -16.674 -2.03669 20.4094
rtibia 25.1655
rfoot -14.7177 -3.54512
rtoes 8.19973
lfemur -16.4413 5.93919 -17.7178
ltibia 24.7192
lfoot -13.0745 4.35486
ltoes -1.82699
216
root 0.536265 17.4403 -14.0755 7.04677 -0.617216 -2.02255
lowerback 0.54842 -0.530202 0.353721
upperback 4.72071 -0.795609 2.07576
thorax 4.58513 -0.429747 1.91875
lowerneck -14.474 0.295036 -2.2248
upperneck 24.7315 1.0564 -0.269859
head 10.2792 0.242308 0.418349
rclavicle -1.80894e-014 9.14409e-015
rhumerus -43.9156 -21.1744 -66.7785
rradius 25.4367
rwrist 29.9957
rhand -18.4124 -26.1821
rfingers 7.12502
rthumb 7.8723 -56.0156
lclavicle -1.80894e-014 9.14409e-015
lhumerus -38.3152 3.64716 83.7202
lradius 18.5148
lwrist 9.56365
lhand -26.4457 -4.66412
lfingers 7.12502
lthumb 0.115266 25.3156
rfemur -16.8895 -2.04024 20.4129
rtibia 25.3077
rfoot -14.7559 -3.53284
rtoes 8.18305
lfemur -16.663 5.96811 -17.7335
ltibia 24.8771
lfoot -13.1144 4.36532
ltoes -1.91247
217
root 0.536938 17.4373 -14.0856 7.13511 -0.643545 -2.02834
lowerback 0.641787 -0.520217 0.363851
upperback 4.78118 -0.782314 2.07848
thorax 4.59485 -0.423094 1.91712
lowerneck -14.5012 0.298822 -2.21494
upperneck 24.5955 1.06242 -0.285984
head 10.2353 0.245627 0.411381
rclavicle 3.27995e-015 7.95139e-016
rhumerus -44.2194 -21.1823 -66.6272
rradius 25.4444
rwrist 30.0407
rhand -18.3924 -26.1441
rfingers 7.12502
rthumb 7.89163 -55.9768
lclavicle 3.27995e-015 7.95139e-016
lhumerus -38.5879 3.68327 83.6874
lradius 18.4922
lwrist 9.64501
lhand -26.5481 -4.84375
lfingers 7.12502
lthumb 0.0163377 25.136
rfemur -17.1008 -2.0431 20.4206
rtibia 25.4433
rfoot -14.7922 -3.51733
rtoes 8.16154
lfemur -16.8815 5.99687 -17.7445
ltibia 25.0328
lfoot -13.1555 4.38263
ltoes -2.0042
218
root 0.53765 17.4344 -14.0953 7.22302 -0.674241 -2.03838
lowerback 0.733635 -0.508974 0.379716
upperback 4.84293 -0.767461 2.08037
thorax 4.60667 -0.415422 1.91144
lowerneck -14.5296 0.30162 -2.20763
upperneck 24.4566 1.06624 -0.296755
head 10.1905 0.248363 0.406457
rclavicle -7.25564e-015 3.73715e-014
rhumerus -44.5179 -21.2125 -66.4679
rradius 25.4394
rwrist 30.1113
rhand -18.3749 -26.1038
rfingers 7.12502
rthumb 7.90854 -55.9359
lclavicle -7.25564e-015 3.73715e-014
lhumerus -38.8561 3.74356 83.6361
lradius 18.4528
lwrist 9.6719
lhand -26.6532 -5.01345
lfingers 7.12502
lthumb -0.0851023 24.9663
rfemur -17.3074 -2.04112 20.4322
rtibia 25.5721
rfoot -14.8267 -3.50158
rtoes 8.13831
lfemur -17.0964 6.02352 -17.7504
ltibia 25.187
lfoot -13.1988 4.40761
ltoes -2.09528
219
root 0.538454 17.4316 -14.1046 7.31098 -0.70823 -2.05125
lowerback 0.822257 -0.496427 0.400286
upperback 4.90695 -0.751018 2.08168
thorax 4.62259 -0.406765 1.90252
lowerneck -14.5627 0.301781 -2.20413
upperneck 24.316 1.06656 -0.304164
head 10.1461 0.24954 0.402933
rclavicle 7.95139e-016 5.96354e-015
rhumerus -44.8086 -21.2634 -66.3006
rradius 25.4253
rwrist 30.1899
rhand -18.3532 -26.0539
rfingers 7.12502
rthumb 7.92945 -55.8852
lclavicle 7.95139e-016 5.96354e-015
lhumerus -39.1213 3.82394 83.5706
lradius 18.4137
lwrist 9.66578
lhand -26.7273 -5.12942
lfingers 7.12502
lthumb -0.156726 24.8503
rfemur -17.5101 -2.03814 20.446
rtibia 25.6955
rfoot -14.8612 -3.48224
rtoes 8.1184
lfemur -17.3072 6.04745 -17.7532
ltibia 25.3389
lfoot -13.2448 4.44024
ltoes -2.19027
220
root 0.539266 17.4288 -14.1135 7.39743 -0.747824 -2.06409
lowerback 0.913978 -0.481638 0.419426
upperback 4.9698 -0.73147 2.08331
thorax 4.63549 -0.396607 1.89483
lowerneck -14.5964 0.300092 -2.20085
upperneck 24.1749 1.0654 -0.315593
head 10.1018 0.249553 0.39785
rclavicle -2.78299e-015 7.15625e-015
rhumerus -45.1 -21.3151 -66.1297
rradius 25.4127
rwrist 30.2539
rhand -18.3292 -25.9929
rfingers 7.12502
rthumb 7.95262 -55.8233
lclavicle -2.78299e-015 7.15625e-015
lhumerus -39.3876 3.91651 83.4968
lradius 18.3791
lwrist 9.65259
lhand -26.7439 -5.12426
lfingers 7.12502
lthumb -0.172758 24.8554
rfemur -17.7085 -2.03095 20.4588
rtibia 25.8157
rfoot -14.8968 -3.45976
rtoes 8.10931
lfemur -17.5117 6.06874 -17.7555
ltibia 25.4879
lfoot -13.2924 4.48343
ltoes -2.29506
221
root 0.540101 17.426 -14.1219 7.48081 -0.790248 -2.07516
lowerback 1.00466 -0.466403 0.437179
upperback 5.0343 -0.711312 2.08432
thorax 4.65073 -0.386194 1.88727
lowerneck -14.6296 0.298476 -2.19765
upperneck 24.0342 1.06555 -0.331667
head 10.0577 0.249615 0.391327
rclavicle 7.15625e-015 1.43125e-014
rhumerus -45.3815 -21.3667 -65.9604
rradius 25.394
rwrist 30.3072
rhand -18.3047 -25.9381
rfingers 7.12502
rthumb 7.97631 -55.7676
lclavicle 7.15625e-015 1.43125e-014
lhumerus -39.65 4.01916 83.4173
lradius 18.3474
lwrist 9.64431
lhand -26.7265 -5.01028
lfingers 7.12502
lthumb -0.155972 24.9694
rfemur -17.9011 -2.02139 20.4688
rtibia 25.935
rfoot -14.9356 -3.43513
rtoes 8.1103
lfemur -17.7074 6.08464 -17.7589
ltibia 25.633
lfoot -13.3433 4.53649
ltoes -2.4074
222
root 0.540847 17.423 -14.1301 7.5618 -0.833089 -2.08341
lowerback 1.09594 -0.451292 0.451477
upperback 5.09767 -0.691171 2.08435
thorax 4.66452 -0.375893 1.8806
lowerneck -14.656 0.297424 -2.19192
upperneck 23.8932 1.06716 -0.35378
head 10.0123 0.249908 0.382434
rclavicle 4.07509e-015 -3.57812e-015
rhumerus -45.6577 -21.4109 -65.7962
rradius 25.3695
rwrist 30.3538
rhand -18.2892 -25.8822
rfingers 7.12502
rthumb 7.99119 -55.7111
lclavicle 4.07509e-015 -3.57812e-015
lhumerus -39.9131 4.11678 83.3387
lradius 18.3111
lwrist 9.64294
lhand -26.7095 -4.83685
lfingers 7.12502
lthumb -0.139528 25.1428
rfemur -18.0903 -2.01043 20.4759
rtibia 26.056
rfoot -14.9781 -3.412
rtoes 8.12029
lfemur -17.8963 6.09844 -17.7642
ltibia 25.7745
lfoot -13.395 4.5929
ltoes -2.52965
223
root 0.541558 17.42 -14.1377 7.63974 -0.874498 -2.08772
lowerback 1.18801 -0.436849 0.462294
upperback 5.1587 -0.671735 2.08314
thorax 4.67547 -0.366036 1.87456
lowerneck -14.6756 0.297005 -2.1872
upperneck 23.7552 1.06985 -0.376446
head 9.96681 0.250538 0.373662
rclavicle -1.19271e-015 9.14409e-015
rhumerus -45.9319 -21.4373 -65.6428
rradius 25.3471
rwrist 30.3906
rhand -18.2923 -25.8214
rfingers 7.12502
rthumb 7.98824 -55.6504
lclavicle -1.19271e-015 9.14409e-015
lhumerus -40.177 4.20954 83.2611
lradius 18.2673
lwrist 9.64765
lhand -26.6836 -4.66165
lfingers 7.12502
lthumb -0.1145 25.3181
rfemur -18.2752 -2.00187 20.4788
rtibia 26.1808
rfoot -15.0256 -3.38753
rtoes 8.13945
lfemur -18.0779 6.10898 -17.7731
ltibia 25.9127
lfoot -13.4479 4.65357
ltoes -2.66425
224
root 0.542133 17.4169 -14.1451 7.71699 -0.912698 -2.08706
lowerback 1.28166 -0.424563 0.467325
upperback 5.21554 -0.654887 2.0801
thorax 4.68127 -0.357633 1.86976
lowerneck -14.6853 0.298661 -2.17706
upperneck 23.619 1.07509 -0.40442
head 9.92015 0.252228 0.362433
rclavicle -7.15625e-015 -4.77083e-015
rhumerus -46.2042 -21.4431 -65.5038
rradius 25.3294
rwrist 30.4228
rhand -18.2865 -25.7777
rfingers 7.12502
rthumb 7.99379 -55.6066
lclavicle -7.15625e-015 -4.77083e-015
lhumerus -40.4445 4.29353 83.1855
lradius 18.2181
lwrist 9.65916
lhand -26.6487 -4.48412
lfingers 7.12502
lthumb -0.080785 25.4956
rfemur -18.4602 -1.99335 20.4772
rtibia 26.3107
rfoot -15.079 -3.36769
rtoes 8.15344
lfemur -18.2562 6.11731 -17.7864
ltibia 26.0485
lfoot -13.5015 4.71575
ltoes -2.81542
